<svg width="295" height="100" viewBox="0 0 295 100" fill="none" xmlns="http://www.w3.org/2000/svg">
<path d="M54.9428 0.944673C66.7323 0.944673 75.147 3.91363 80.1868 9.85155C83.8766 14.35 85.7215 19.973 85.7215 26.7206C85.7215 29.1498 85.4966 31.7139 85.0466 34.413L79.7818 64.5074C77.9819 74.6739 73.572 82.816 66.5523 88.9339C59.5326 95.0517 50.443 98.1107 39.2834 98.1107H0L17.1443 0.944673H54.9428ZM46.4381 21.9973H37.6635L28.0789 77.058H40.9033C45.1332 77.058 48.418 75.9334 50.7579 73.6842C53.1879 71.345 54.8528 67.5664 55.7527 62.3482L59.6676 40.2159C60.0276 38.2366 60.2076 36.4372 60.2076 34.8178C60.2076 26.2708 55.6178 21.9973 46.4381 21.9973Z" fill="#7E3333"/>
<path d="M170.783 0.944673L168.488 74.4939H171.593L195.082 0.944673H221.541L188.197 98.1107H147.699L151.344 35.8974L133.254 98.1107H92.756L93.701 0.944673H120.16L117.73 74.4939H120.835L144.459 0.944673H170.783Z" fill="#7E3333"/>
<path d="M262.466 0C284.155 0 295 8.8619 295 26.5857C295 29.5547 294.685 32.7485 294.055 36.1673L289.33 63.1579C287.17 75.6635 282.491 84.9303 275.291 90.9582C268.091 96.9861 257.966 100 244.917 100C231.868 100 222.778 96.9861 217.648 90.9582C214.138 86.8196 212.383 81.1066 212.383 73.8192C212.383 70.5803 212.743 67.0265 213.463 63.1579L218.188 36.1673C222.418 12.0558 237.177 0 262.466 0ZM248.562 79.0823C253.062 79.0823 256.662 77.9127 259.361 75.5735C262.061 73.2344 263.951 68.9159 265.031 62.6181L269.621 36.7072C269.891 34.9078 270.026 33.2883 270.026 31.8489C270.026 24.5614 266.336 20.9177 258.956 20.9177C249.687 21.0976 244.152 26.3608 242.352 36.7072L237.762 62.6181C237.402 64.8673 237.222 67.2065 237.222 69.6356C237.222 75.9334 241.002 79.0823 248.562 79.0823Z" fill="#7E3333"/>
</svg>
